<?xml version="1.0" encoding="UTF-8" standalone="no"?>
<!-- Created with Inkscape (http://www.inkscape.org/) -->

<svg
   xmlns:dc="http://purl.org/dc/elements/1.1/"
   xmlns:cc="http://creativecommons.org/ns#"
   xmlns:rdf="http://www.w3.org/1999/02/22-rdf-syntax-ns#"
   xmlns:svg="http://www.w3.org/2000/svg"
   xmlns="http://www.w3.org/2000/svg"
   xmlns:xlink="http://www.w3.org/1999/xlink"
   xmlns:sodipodi="http://sodipodi.sourceforge.net/DTD/sodipodi-0.dtd"
   xmlns:inkscape="http://www.inkscape.org/namespaces/inkscape"
   width="744.09448819"
   height="1052.3622047"
   id="svg2"
   sodipodi:version="0.32"
   inkscape:version="0.48.1 r9760"
   sodipodi:docname="heatlogo-v7.svg"
   inkscape:output_extension="org.inkscape.output.svg.inkscape"
   inkscape:export-filename="/home/calfonso/code/heat-api.github.com/heat-logo-design/calfonso/heatlogo-v7-small.png"
   inkscape:export-xdpi="138.37247"
   inkscape:export-ydpi="138.37247"
   version="1.1">
  <defs
     id="defs4">
    <linearGradient
       inkscape:collect="always"
       id="linearGradient3018">
      <stop
         style="stop-color:#ee7310;stop-opacity:1;"
         offset="0"
         id="stop3020" />
      <stop
         style="stop-color:#ee7310;stop-opacity:0;"
         offset="1"
         id="stop3022" />
    </linearGradient>
    <linearGradient
       id="linearGradient3919">
      <stop
         style="stop-color:#19751c;stop-opacity:1;"
         offset="0"
         id="stop3921" />
      <stop
         style="stop-color:#ee7310;stop-opacity:0.27983539"
         offset="1"
         id="stop3923" />
    </linearGradient>
    <inkscape:perspective
       sodipodi:type="inkscape:persp3d"
       inkscape:vp_x="0 : 526.18109 : 1"
       inkscape:vp_y="0 : 1000 : 0"
       inkscape:vp_z="744.09448 : 526.18109 : 1"
       inkscape:persp3d-origin="372.04724 : 350.78739 : 1"
       id="perspective10" />
    <inkscape:perspective
       id="perspective2450"
       inkscape:persp3d-origin="372.04724 : 350.78739 : 1"
       inkscape:vp_z="744.09448 : 526.18109 : 1"
       inkscape:vp_y="0 : 1000 : 0"
       inkscape:vp_x="0 : 526.18109 : 1"
       sodipodi:type="inkscape:persp3d" />
    <linearGradient
       inkscape:collect="always"
       xlink:href="#linearGradient3919"
       id="linearGradient3925"
       x1="-768.47357"
       y1="715.98138"
       x2="-764.18042"
       y2="532.38617"
       gradientUnits="userSpaceOnUse" />
    <linearGradient
       inkscape:collect="always"
       xlink:href="#linearGradient3919"
       id="linearGradient3990"
       gradientUnits="userSpaceOnUse"
       x1="-768.47357"
       y1="715.98138"
       x2="-764.18042"
       y2="532.38617" />
    <linearGradient
       inkscape:collect="always"
       xlink:href="#linearGradient3018"
       id="linearGradient3024"
       x1="-623.11896"
       y1="724.70862"
       x2="-624.88318"
       y2="660.31396"
       gradientUnits="userSpaceOnUse" />
    <linearGradient
       inkscape:collect="always"
       xlink:href="#linearGradient3018"
       id="linearGradient3107"
       gradientUnits="userSpaceOnUse"
       x1="-623.11896"
       y1="724.70862"
       x2="-624.88318"
       y2="660.31396"
       gradientTransform="translate(-1.0055895e-5,0.10543178)" />
    <linearGradient
       inkscape:collect="always"
       xlink:href="#linearGradient3018-7"
       id="linearGradient3107-9"
       gradientUnits="userSpaceOnUse"
       x1="-623.11896"
       y1="724.70862"
       x2="-624.88318"
       y2="660.31396" />
    <linearGradient
       inkscape:collect="always"
       id="linearGradient3018-7">
      <stop
         style="stop-color:#ee7310;stop-opacity:1;"
         offset="0"
         id="stop3020-5" />
      <stop
         style="stop-color:#ee7310;stop-opacity:0;"
         offset="1"
         id="stop3022-3" />
    </linearGradient>
    <linearGradient
       inkscape:collect="always"
       xlink:href="#linearGradient3018-7"
       id="linearGradient3123"
       gradientUnits="userSpaceOnUse"
       x1="-623.11896"
       y1="724.70862"
       x2="-624.88318"
       y2="660.31396" />
    <linearGradient
       gradientTransform="translate(180.04024,0.10544876)"
       y2="660.31396"
       x2="-624.88318"
       y1="724.70862"
       x1="-623.11896"
       gradientUnits="userSpaceOnUse"
       id="linearGradient3133"
       xlink:href="#linearGradient3018-7"
       inkscape:collect="always" />
    <linearGradient
       inkscape:collect="always"
       xlink:href="#linearGradient3018"
       id="linearGradient3183"
       gradientUnits="userSpaceOnUse"
       gradientTransform="translate(-1.0055895e-5,0.10543178)"
       x1="-628.60791"
       y1="712.95026"
       x2="-628.87512"
       y2="575.96057" />
    <linearGradient
       inkscape:collect="always"
       xlink:href="#linearGradient3018-7"
       id="linearGradient3185"
       gradientUnits="userSpaceOnUse"
       gradientTransform="translate(180.04024,0.10544876)"
       x1="-623.11896"
       y1="724.70862"
       x2="-624.88318"
       y2="660.31396" />
    <linearGradient
       inkscape:collect="always"
       xlink:href="#linearGradient3018-7"
       id="linearGradient3189"
       gradientUnits="userSpaceOnUse"
       gradientTransform="translate(180.04024,0.10544876)"
       x1="-623.11896"
       y1="724.70862"
       x2="-624.88318"
       y2="660.31396" />
    <linearGradient
       inkscape:collect="always"
       xlink:href="#linearGradient3018"
       id="linearGradient3193"
       gradientUnits="userSpaceOnUse"
       gradientTransform="translate(-2.011179e-5,2.6568234)"
       x1="-628.60791"
       y1="712.95026"
       x2="-628.87512"
       y2="575.96057" />
    <linearGradient
       inkscape:collect="always"
       xlink:href="#linearGradient3018-6"
       id="linearGradient3193-2"
       gradientUnits="userSpaceOnUse"
       gradientTransform="translate(-1.0055895e-5,0.10543178)"
       x1="-628.60791"
       y1="712.95026"
       x2="-628.87512"
       y2="575.96057" />
    <linearGradient
       inkscape:collect="always"
       id="linearGradient3018-6">
      <stop
         style="stop-color:#ee7310;stop-opacity:1;"
         offset="0"
         id="stop3020-52" />
      <stop
         style="stop-color:#ee7310;stop-opacity:0;"
         offset="1"
         id="stop3022-6" />
    </linearGradient>
    <linearGradient
       inkscape:collect="always"
       xlink:href="#linearGradient3018-6"
       id="linearGradient3209"
       gradientUnits="userSpaceOnUse"
       gradientTransform="translate(-1.0055895e-5,0.10543178)"
       x1="-628.60791"
       y1="712.95026"
       x2="-628.87512"
       y2="575.96057" />
    <linearGradient
       y2="575.96057"
       x2="-628.87512"
       y1="712.95026"
       x1="-628.60791"
       gradientTransform="translate(182.72355,2.6568136)"
       gradientUnits="userSpaceOnUse"
       id="linearGradient3219"
       xlink:href="#linearGradient3018-6"
       inkscape:collect="always" />
  </defs>
  <sodipodi:namedview
     id="base"
     pagecolor="#ffffff"
     bordercolor="#666666"
     borderopacity="1.0"
     gridtolerance="10000"
     guidetolerance="10"
     objecttolerance="10"
     inkscape:pageopacity="0.0"
     inkscape:pageshadow="2"
     inkscape:zoom="0.98994949"
     inkscape:cx="-791.44405"
     inkscape:cy="453.20807"
     inkscape:document-units="px"
     inkscape:current-layer="g3927"
     showgrid="false"
     inkscape:window-width="1920"
     inkscape:window-height="1049"
     inkscape:window-x="1600"
     inkscape:window-y="0"
     showborder="false"
     inkscape:window-maximized="1"
     showguides="true"
     inkscape:guide-bbox="true" />
  <metadata
     id="metadata7">
    <rdf:RDF>
      <cc:Work
         rdf:about="">
        <dc:format>image/svg+xml</dc:format>
        <dc:type
           rdf:resource="http://purl.org/dc/dcmitype/StillImage" />
        <dc:title></dc:title>
      </cc:Work>
    </rdf:RDF>
  </metadata>
  <g
     inkscape:label="Layer 1"
     inkscape:groupmode="layer"
     id="layer1">
    <text
       xml:space="preserve"
       style="font-size:40px;font-style:normal;font-weight:normal;line-height:125%;letter-spacing:0px;word-spacing:0px;fill:#000000;fill-opacity:1;stroke:none;font-family:Sans"
       x="397.14285"
       y="392.36218"
       id="text3969"
       sodipodi:linespacing="125%"><tspan
         sodipodi:role="line"
         id="tspan3971"
         x="397.14285"
         y="392.36218" /></text>
    <g
       id="g3927">
      <g
         id="g3248">
        <g
           transform="matrix(0.7152932,0,0,0.7152932,-154.03907,206.36541)"
           id="g3162">
          <path
             inkscape:connector-curvature="0"
             id="path2456-8"
             d="m -549.00897,706.31896 c 1.16535,-2.78477 2.86631,-5.58597 2.41581,-8.73539 -0.0173,-2.95696 1.8389,-5.50167 3.11619,-8.05261 1.88945,-3.25889 3.65544,-6.64408 6.37509,-9.31191 1.26127,-1.4849 2.45735,-2.98475 4.30941,-3.74464 4.65169,-2.81335 9.33516,-6.36 14.98376,-6.53583 2.83238,0.24288 4.82311,2.7038 7.78136,1.69209 1.9667,0.16982 3.31514,2.8707 5.14728,0.45127 2.5186,-1.55611 4.74779,-3.83422 7.64296,-4.63772 2.8475,0.23361 4.28515,3.58074 2.87474,5.9853 -0.49324,1.33788 -2.89226,3.75405 -2.60226,0.85093 0.31075,-3.23311 -3.37868,-0.95258 -4.05097,0.60303 -1.7327,1.8914 -0.78013,3.44318 0.67075,5.1151 0.96539,2.43539 1.46111,5.09761 1.65509,7.71391 -0.004,2.21295 -0.9594,4.41773 -2.36264,6.11364 -1.51923,3.04913 -2.77556,6.31182 -5.51822,8.51974 -1.76028,2.49574 -4.92946,3.11934 -6.88076,5.32458 -2.13454,2.85824 -5.03913,5.15951 -8.28683,6.60962 -4.091,1.18273 -8.38777,1.12562 -12.57747,1.70131 -2.77488,-0.29995 -5.65939,-0.86433 -7.68664,-2.96084 -1.6573,-2.50106 -5.04198,-3.01654 -6.47166,-5.61063 -0.18304,-0.36134 -0.34921,-0.73096 -0.53499,-1.09095 z"
             style="fill:#6f6a6a;fill-opacity:1;fill-rule:evenodd;stroke:none" />
          <path
             inkscape:connector-curvature="0"
             id="path2456"
             d="m -546.82538,706.02719 0.72595,-1.726 0.80695,-1.61826 0.72521,-2.39992 0.13303,-1.61753 -0.0289,-1.833 0.53723,-1.75276 1.64063,-3.42524 1.53362,-2.67036 1.15691,-2.04994 1.50687,-2.48163 1.74983,-2.15841 1.37312,-1.538 1.39986,-1.72674 2.53221,-1.56621 1.80479,-1.18804 2.34349,-1.59297 3.34061,-1.83667 2.64067,-0.97329 2.47944,-0.51486 2.5344,0.45551 1.59151,0.99566 1.21407,0.94217 -0.40494,-0.5387 1.80553,-0.51412 2.04922,0.48299 1.21405,0.94216 0.75563,0.78092 3.39412,-2.21411 3.20539,-2.24085 2.55896,-1.75495 1.77877,-0.3254 1.40279,0.9689 0.48665,1.32035 -0.21329,2.1837 -0.37599,1.29432 -0.56544,0.59365 -0.18945,-0.70066 -0.18946,-0.70067 -0.055,-0.97037 -0.24368,-0.99712 -0.62041,-0.37672 -0.8084,0.27044 -1.45483,0.75635 -1.4541,1.43027 -1.53436,1.99644 -1.39985,1.72674 -0.40348,0.80912 0.80986,1.07739 1.02607,1.58932 0.91979,3.01813 0.70358,2.50618 0.13742,2.42593 -1.29067,2.99356 -0.78018,1.42955 -1.21114,1.75348 -0.86044,1.99571 -0.96819,2.0767 -2.15403,2.29363 -1.56183,1.51126 -2.12802,1.43099 -2.07451,1.05355 -1.13088,1.18731 -2.20753,2.67108 -2.93568,2.37535 -2.31674,1.40425 -2.80264,0.75783 -3.04561,0.43459 -2.93787,0.35363 -2.74915,0.38036 -1.32107,-0.18726 -1.69852,-0.24077 -1.29431,-0.37598 -1.3218,-0.86118 -1.64575,-1.29213 -1.16056,-1.3196 -1.21405,-0.94216 -0.99786,-0.43022 -1.13308,-0.83443 -0.70212,-1.15835 -0.13522,-0.40421 -0.29719,-0.61968 z"
             style="fill:#ee7310;fill-opacity:1;fill-rule:evenodd;stroke:none" />
          <path
             inkscape:connector-curvature="0"
             id="path2458"
             d="m -512.3283,674.53161 1.24009,0.0795 0.43022,-0.99787 0.10701,-0.75489 1.07957,1.21187 0.83661,0.88866 0.83588,0.21474 1.50833,-1.13381 3.85182,-2.72677 2.12802,-1.431 1.61607,-1.21479 1.02387,-0.43242 1.21333,0.26825 1.07884,0.53796 0.59439,1.23936 -0.15979,1.80624 -0.3485,1.77951 -0.37671,0.62041 -0.43096,0.32395 -0.29792,-1.29359 -0.16343,-1.56329 -0.0817,-0.78166 -0.37744,-0.0535 -0.8894,0.16269 -1.15837,0.70212 -1.48158,0.94508 -1.07664,1.48378 -1.39987,1.72673 -1.18438,1.56476 -0.29574,0.72814 0.37818,0.72741 0.9176,0.9964 0.48592,0.64643 -1.24008,-0.0795 -0.70067,0.18945 0.6204,0.37671 0.40494,0.5387 -0.53869,0.40493 -0.48519,0.0275 -0.34996,0.43168 -0.34997,0.43169 -0.72669,1.05208 -0.29719,-0.61967 -0.13595,-1.07811 -0.43241,-1.02388 -0.37745,-0.0535 -0.89012,-0.51121 -1.05208,-0.72667 -0.62042,-0.37673 -0.24295,-0.3232 -1.21479,-1.61608 -7.3e-4,-0.6739 -0.62114,-1.05063 -0.29719,-0.61968 -0.055,-0.97038 z"
             style="fill:#3e5d2e;fill-opacity:1;fill-rule:evenodd;stroke:none" />
          <path
             inkscape:connector-curvature="0"
             id="path2460"
             d="m -504.37075,679.50993 -0.26898,0.53943 -0.78165,0.0817 -0.75563,-0.78092 -1.37529,-0.48372 0.15977,-1.80626 0.80841,-0.27044 1.15837,-0.70212 0.88865,-0.83661 0.80767,-0.94436 0.67317,-0.67464 0.48447,-0.70139 0.40346,-0.80913 0.86118,-1.3218 0.43095,-0.32394 1.02387,-0.43242 1.29286,-0.97184 0.86264,0.026 0.59365,0.56544 0.51267,0.4577 0.94362,0.13376 0.94363,0.13377 -0.10702,0.75489 -0.402,2.15696 -0.48446,0.70138 -0.61894,0.97111 0.10627,-1.42881 -0.1627,-0.88938 -0.32468,-1.10487 -0.99785,-0.43022 -1.85903,0.89157 -1.56184,1.51126 -1.53436,1.99644 -1.21113,1.75349 -0.50975,2.23793 z"
             style="fill:#2c451f;fill-opacity:1;fill-rule:evenodd;stroke:none" />
          <path
             inkscape:connector-curvature="0"
             id="path2462"
             d="m -509.98189,675.63429 0.16051,-1.13235 -0.29719,-0.61967 -0.40494,-0.5387 -0.18798,0.64716 -0.75417,0.56691 -0.86264,-0.026 0.18946,0.70067 0.99785,0.43022 1.1591,-0.0282 z"
             style="fill:none;stroke:none" />
          <path
             inkscape:connector-curvature="0"
             id="path2464"
             d="m -513.269,677.0935 -3.157,-2.85397 -2.45341,-0.34777 -5.17362,1.86561 -2.74841,1.05428 -3.44908,1.24373 -0.69993,0.86337 -1.29213,1.64574 -1.18512,0.89085 -1.10413,0.99858 -1.64282,1.40352 -0.94143,1.88797 -0.42877,2.34568 -0.1323,2.29144 -0.66952,4.04419 -0.34851,1.77951 1.13235,0.16051 1.56257,-0.83734 1.18658,0.45698 2.48089,0.83295 2.45341,0.34777 2.58718,-0.59585 2.3182,-0.0564 0.80912,0.40346 0.0557,1.64429 0.73034,2.31746 0.24368,0.99712 1.86269,2.47798 1.26683,-0.1092 1.88432,-2.42812 0.91394,-2.37317 1.72309,-1.96968 2.47725,-2.53659 1.02314,-1.10632 2.07159,-3.74919 0.64496,-1.83374 0.91468,-1.69925 1.42588,-2.58937 0.43242,1.02388 -0.0498,3.747 -0.88721,2.18443 -0.0253,1.53655 0.70212,1.15837 1.13235,0.16051 1.21333,0.26825 0.64715,0.18799 -0.91394,2.37316 -1.13016,1.86122 -2.58498,2.61757 -2.74695,2.40211 -1.67031,0.91832 -0.86263,-0.026 0.6992,-1.53728 0.26752,-1.88725 -1.21334,-0.26824 -2.66596,2.50984 -2.23502,2.18589 -1.2914,2.31966 -2.8272,2.96828 -0.56399,1.94147 -0.53869,0.40493 -3.36882,0.67757 -2.69491,0.67683 0.15977,-1.80627 0.34924,-1.10558 0.61822,-1.64502 -0.94436,-0.80767 -1.67249,-1.1034 0.40347,-0.80913 -0.56836,-2.10199 -1.34782,10e-4 -2.5879,-0.0781 -3.47876,-1.26319 -0.86483,-2.04776 -0.3789,-1.40132 0.0245,-2.21046 -0.13595,-1.07812 -0.1627,-0.88938 -0.0817,-0.78164 0.0253,-1.53655 0.34924,-1.10559 -0.80913,-0.40347 -1.66957,1.59224 -0.37745,-0.0535 1.18366,-2.23867 1.77512,-3.69496 1.7491,-2.83233 2.61173,-2.8063 1.6421,-2.07742 0.69993,-0.86337 2.39772,-1.2965 1.94001,-0.78385 1.91326,-0.59512 2.26324,-1.02679 2.55969,-1.08104 3.74554,-1.29796 1.7795,0.34849 1.75348,1.21115 1.10633,1.02315 0.86409,1.37384 z"
             style="fill:#dd7018;fill-opacity:1;fill-rule:evenodd;stroke:none" />
          <path
             inkscape:connector-curvature="0"
             id="path2466"
             d="m -538.99091,696.93437 1.26903,1.91254 1.88869,1.61533 2.48091,0.83296 1.21333,0.26825 0.56471,-1.26756 0.64569,-1.15983 1.61681,-0.54088 1.26611,-0.7831 1.32107,0.18726 1.83592,2.66669 0.54161,2.29072 -1.07373,4.17941 -1.29358,0.29793 -1.94293,-1.9118 -2.69712,-1.34491 -3.96247,0.11213 -1.80698,-0.83369 -1.13308,-0.83443 -1.40425,-2.31673 -0.19019,-1.37458 -0.0557,-1.64428 0.91613,-0.35143 z"
             style="fill:#c8691c;fill-opacity:1;fill-rule:evenodd;stroke:none" />
          <path
             inkscape:connector-curvature="0"
             sodipodi:nodetypes="ccccccccccccccccccccccccccccc"
             id="path2468"
             d="m -530.32932,679.96937 -0.45624,1.86049 -0.37525,1.96824 -0.13158,2.96534 0.62187,1.72454 0.53943,0.26899 1.91398,0.0788 1.56622,2.53221 0.32614,2.45269 0.27118,1.48232 1.15909,-0.0282 1.05209,0.72669 -0.99147,0.57119 -2.65752,0.1066 -2.25658,0.46841 -1.2076,0.0101 -3.23772,-0.79468 -1.64883,-0.81808 -0.45846,0.1482 -1.1337,0.7141 -1.27282,-0.22554 0.28478,-1.28624 0.43531,-2.63114 0.33027,-2.72605 0.30939,-3.19358 1.20142,-2.56102 1.80281,-1.30306 1.10414,-0.99859 2.90965,-1.51272 z"
             style="opacity:0.1896552;fill:#496b34;fill-opacity:1;fill-rule:evenodd;stroke:none" />
          <path
             inkscape:connector-curvature="0"
             id="path2470"
             d="m -503.31719,681.58444 0.32612,2.45268 -0.34557,4.47515 -0.59147,1.45629 0.11066,2.61466 0.45917,0.83515 1.29139,-2.31966 1.31815,-2.50838 -0.35362,-2.93786 -0.2184,-2.53368 -0.7831,-1.2661 -1.21333,-0.26825 z"
             style="fill:none;stroke:none" />
          <path
             inkscape:connector-curvature="0"
             id="path2472"
             d="m -541.71038,699.82166 0.40639,1.88651 0.51485,2.47943 1.29286,-0.97183 -0.45916,-0.83515 -0.45989,-1.50906 -1.29505,-1.0499 z"
             style="fill:#ffbd86;fill-opacity:1;fill-rule:evenodd;stroke:none" />
          <path
             inkscape:connector-curvature="0"
             id="path2474"
             d="m -537.118,708.84709 0.91614,-0.35142 1.37457,-0.19019 1.37457,-0.19019 -0.62041,-0.37671 -0.89011,-0.51121 -1.02388,0.43241 -0.72741,0.37819 -0.40347,0.80912 z"
             style="fill:#ffbd86;fill-opacity:1;fill-rule:evenodd;stroke:none" />
          <path
             inkscape:connector-curvature="0"
             id="path2476"
             d="m -520.25033,677.4515 1.29285,-0.97184 1.69925,0.91468 1.10633,1.02315 -0.53869,0.40494 -0.94289,0.54014 1.16055,1.31961 0.94436,0.80767 -0.18654,1.99498 -1.13234,-0.16051 -1.53728,-0.69921 -0.59438,-1.23934 -0.13742,-2.42594 -0.45916,-0.83515 -0.67464,-0.67318 z"
             style="fill:#ffbd86;fill-opacity:1;fill-rule:evenodd;stroke:none" />
          <path
             inkscape:connector-curvature="0"
             id="path2478"
             d="m -512.39905,683.85863 -0.61822,1.64502 1.32252,1.53507 0.80914,0.40348 -0.0817,-0.78166 -0.56691,-0.75416 -0.055,-0.97038 0.2415,-1.0246 -1.05135,-0.0528 z"
             style="fill:#ffbd86;fill-opacity:1;fill-rule:evenodd;stroke:none" />
        </g>
        <text
           xml:space="preserve"
           style="font-size:62.32102966px;font-style:normal;font-weight:normal;line-height:125%;letter-spacing:0px;word-spacing:0px;fill:url(#linearGradient3193);fill-opacity:1;stroke:#6f6a6a;stroke-width:2.03492641;stroke-miterlimit:4;stroke-opacity:1;stroke-dasharray:none;font-family:Sans"
           x="-681.91486"
           y="724.70862"
           id="text3988"
           sodipodi:linespacing="125%"
           transform="scale(1.0121892,0.98795758)"><tspan
             sodipodi:role="line"
             x="-681.91486"
             y="724.70862"
             id="tspan3996"
             style="font-style:normal;font-variant:normal;font-weight:normal;font-stretch:normal;fill:url(#linearGradient3193);fill-opacity:1;stroke:#6f6a6a;stroke-width:2.03492641;stroke-miterlimit:4;stroke-opacity:1;stroke-dasharray:none;font-family:Sancreek;-inkscape-font-specification:Sancreek">HEAT</tspan></text>
        <text
           xml:space="preserve"
           style="font-size:62.32102966px;font-style:normal;font-weight:normal;line-height:125%;letter-spacing:0px;word-spacing:0px;fill:url(#linearGradient3219);fill-opacity:1;stroke:#6f6a6a;stroke-width:2.03492641;stroke-miterlimit:4;stroke-opacity:1;stroke-dasharray:none;font-family:Sans"
           x="-499.19128"
           y="724.70862"
           id="text3988-5"
           sodipodi:linespacing="125%"
           transform="scale(1.0121892,0.98795758)"><tspan
             sodipodi:role="line"
             x="-499.19128"
             y="724.70862"
             id="tspan3996-8"
             style="font-style:normal;font-variant:normal;font-weight:normal;font-stretch:normal;fill:url(#linearGradient3219);fill-opacity:1;stroke:#6f6a6a;stroke-width:2.03492641;stroke-miterlimit:4;stroke-opacity:1;stroke-dasharray:none;font-family:Sancreek;-inkscape-font-specification:Sancreek">API</tspan></text>
      </g>
    </g>
  </g>
</svg>
